<?xml version="1.0" encoding="utf-8"?>
<!-- Generator: Adobe Illustrator 25.4.1, SVG Export Plug-In . SVG Version: 6.00 Build 0)  -->
<svg version="1.1" id="Слой_1" xmlns="http://www.w3.org/2000/svg" xmlns:xlink="http://www.w3.org/1999/xlink" x="0px" y="0px"
	 viewBox="0 0 566.9 566.9" style="enable-background:new 0 0 566.9 566.9;" xml:space="preserve">
<style type="text/css">
	.st0{enable-background:new    ;}
	.st1{fill:#C6A979;}
</style>
<g class="st0">
	<path class="st1" d="M329.2,545.6V320.8h-90.9v198.3l-68.2,26.5V149c0-3.9,0.3-7.9,0.8-12c0.6-4.1,1.2-8.1,1.9-12
		c2.2-15.1,6.7-29.4,13.3-43s15-25.3,24.9-35.2c10.3-9.9,21.8-17.4,34.4-22.6c12.6-5.2,25.3-7.8,38.2-7.8c13.3,0,26.2,2.7,38.8,8.1
		c12.6,5.4,23.8,13.2,33.8,23.6c10.3,9.9,18.8,21.6,25.5,35.2c6.7,13.6,11.1,27.9,13.3,43c0.7,3.5,1.3,7.1,1.7,11
		c0.4,3.9,0.6,7.8,0.6,11.6v370.1L329.2,545.6z M329.2,241.3V149v-4.5c0-1.7,0-3.4,0-5.2c-1.1-5.6-3-11.2-5.8-16.8
		c-2.8-5.6-6-10.5-9.7-14.9c-4.8-3.9-9.7-6.8-14.7-8.7c-5-1.9-10.1-2.9-15.2-2.9c-5.2,0-10.2,1-15,2.9c-4.8,1.9-9.2,4.8-13.3,8.7
		c-4.4,4.3-8,9.3-10.5,14.9c-2.6,5.6-4.4,11.2-5.5,16.8c-0.4,1.7-0.6,3.5-0.8,5.2c-0.2,1.7-0.3,3.2-0.3,4.5v92.4H329.2z"/>
</g>
</svg>
